<?xml version="1.0" encoding="UTF-8" standalone="no"?>
<!DOCTYPE svg PUBLIC "-//W3C//DTD SVG 1.1//EN" "http://www.w3.org/Graphics/SVG/1.1/DTD/svg11.dtd">
<svg width="100%" height="100%" viewBox="0 0 64 64" version="1.1" xmlns="http://www.w3.org/2000/svg" xmlns:xlink="http://www.w3.org/1999/xlink" xml:space="preserve" xmlns:serif="http://www.serif.com/" style="fill-rule:evenodd;clip-rule:evenodd;stroke-linejoin:round;">
    <g id="Layer-1" serif:id="Layer 1">
        <g transform="matrix(1,0,0,1,-15.7992,0.182355)">
            <path id="path69052" d="M20.8,28L20.8,16.8L32,20.8L32,32L20.8,28Z" style="fill:url(#_Linear1);fill-rule:nonzero;stroke:rgb(48,43,0);stroke-width:1.6px;"/>
            <path id="path4381" d="M20.8,39.2L20.8,28L43.2,36L43.2,47.2L20.8,39.2Z" style="fill:url(#_Linear2);fill-rule:nonzero;stroke:rgb(48,43,0);stroke-width:1.6px;"/>
            <path id="path4391" d="M43.2,47.2L43.2,36L57.6,22.4L57.6,32.8L43.2,47.2Z" style="fill:url(#_Linear3);fill-rule:nonzero;stroke:rgb(48,43,0);stroke-width:1.6px;"/>
            <path id="path4403" d="M20.8,16.8L36.8,4L47.2,8L32,20.8L20.8,16.8Z" style="fill:rgb(252,233,79);fill-rule:nonzero;stroke:rgb(48,43,0);stroke-width:1.6px;"/>
            <path id="path4381-7" d="M22.406,38.085L22.4,30.4L41.6,36.8L41.606,44.948L22.406,38.085Z" style="fill:none;fill-rule:nonzero;stroke:rgb(252,233,79);stroke-width:1.6px;stroke-linejoin:miter;"/>
            <path id="path4391-0" d="M44.804,43.335L44.8,36.8L56,26L56.002,32.141L44.804,43.335Z" style="fill:none;fill-rule:nonzero;stroke:rgb(237,212,0);stroke-width:1.6px;stroke-linejoin:miter;"/>
            <path id="path69038" d="M32,32L47.2,18.4L57.6,22.4L43.2,36L32,32Z" style="fill:rgb(252,233,79);fill-rule:nonzero;stroke:rgb(48,43,0);stroke-width:1.6px;"/>
            <path id="path69040" d="M32,32L32,20.8L47.2,8L47.2,18.4L32,32Z" style="fill:url(#_Linear4);fill-rule:nonzero;stroke:rgb(48,43,0);stroke-width:1.6px;"/>
            <path id="path69044" d="M33.6,28.8L33.6,21.6L45.6,11.2L45.6,17.6L33.6,28.8Z" style="fill:none;fill-rule:nonzero;stroke:rgb(237,212,0);stroke-width:1.6px;stroke-linejoin:miter;"/>
            <path id="path69048" d="M22.406,26.885L22.4,19.2L30.4,21.6L30.4,29.6L22.406,26.885Z" style="fill:none;fill-rule:nonzero;stroke:rgb(252,233,79);stroke-width:1.6px;stroke-linejoin:miter;"/>
        </g>
        <g transform="matrix(1,0,0,1,1.08977,-1.46376)">
            <g transform="matrix(1.59798,0,0,1.59798,-35.5946,-37.5392)">
                <circle cx="49.812" cy="53.063" r="9.713" style="fill:rgb(0,94,255);"/>
            </g>
            <g transform="matrix(1,0,0,1,-2.62829,0.274384)">
                <g transform="matrix(1,0,0,1,0.8581,1.46376)">
                    <rect x="42.506" y="42.758" width="6.537" height="14.021" style="fill:rgb(235,235,235);"/>
                </g>
                <g transform="matrix(1,0,0,1,-2.71829,-0.53624)">
                    <circle cx="49.351" cy="39.841" r="3.588" style="fill:rgb(235,235,235);"/>
                </g>
            </g>
        </g>
    </g>
    <defs>
        <linearGradient id="_Linear1" x1="0" y1="0" x2="1" y2="0" gradientUnits="userSpaceOnUse" gradientTransform="matrix(-2.4,-8,8,-2.4,28.8,28)"><stop offset="0" style="stop-color:rgb(196,160,0);stop-opacity:1"/><stop offset="1" style="stop-color:rgb(252,233,79);stop-opacity:1"/></linearGradient>
        <linearGradient id="_Linear2" x1="0" y1="0" x2="1" y2="0" gradientUnits="userSpaceOnUse" gradientTransform="matrix(-4,-11.2,11.2,-4,34.4,41.6)"><stop offset="0" style="stop-color:rgb(196,160,0);stop-opacity:1"/><stop offset="1" style="stop-color:rgb(252,233,79);stop-opacity:1"/></linearGradient>
        <linearGradient id="_Linear3" x1="0" y1="0" x2="1" y2="0" gradientUnits="userSpaceOnUse" gradientTransform="matrix(-1.6,-8.8,8.8,-1.6,53.6,37.6)"><stop offset="0" style="stop-color:rgb(196,160,0);stop-opacity:1"/><stop offset="1" style="stop-color:rgb(237,212,0);stop-opacity:1"/></linearGradient>
        <linearGradient id="_Linear4" x1="0" y1="0" x2="1" y2="0" gradientUnits="userSpaceOnUse" gradientTransform="matrix(-1.6,-8,8,-1.6,42.4,22.4)"><stop offset="0" style="stop-color:rgb(196,160,0);stop-opacity:1"/><stop offset="1" style="stop-color:rgb(237,212,0);stop-opacity:1"/></linearGradient>
    </defs>
</svg>
