<?xml version="1.0" encoding="UTF-8" standalone="no"?>
<!DOCTYPE svg PUBLIC "-//W3C//DTD SVG 1.1//EN" "http://www.w3.org/Graphics/SVG/1.1/DTD/svg11.dtd">
<svg width="100%" height="100%" viewBox="0 0 64 64" version="1.1" xmlns="http://www.w3.org/2000/svg" xmlns:xlink="http://www.w3.org/1999/xlink" xml:space="preserve" xmlns:serif="http://www.serif.com/" style="fill-rule:evenodd;clip-rule:evenodd;stroke-linecap:round;stroke-linejoin:round;stroke-miterlimit:1.5;">
    <g transform="matrix(2.04882,0,0,2.04882,-62.4587,-34.1839)">
        <path d="M49.019,19.197C48.257,19.122 47.489,19.122 46.728,19.197C46.505,20.073 46.43,20.96 46.502,21.861C45.845,21.961 45.201,22.134 44.582,22.375C44.194,21.559 43.685,20.828 43.054,20.182C42.357,20.497 41.692,20.881 41.07,21.327C41.315,22.196 41.694,23.003 42.206,23.747C41.688,24.162 41.216,24.634 40.801,25.152C40.057,24.64 39.251,24.261 38.381,24.016C37.935,24.638 37.552,25.303 37.236,26C37.882,26.631 38.614,27.14 39.429,27.528C39.188,28.147 39.016,28.791 38.915,29.448C38.015,29.375 37.127,29.451 36.251,29.673C36.176,30.435 36.176,31.203 36.251,31.964C37.127,32.187 38.015,32.262 38.915,32.19C39.016,32.847 39.188,33.491 39.429,34.11C38.614,34.498 37.882,35.007 37.236,35.638C37.552,36.335 37.935,37 38.381,37.622C39.251,37.377 40.057,36.998 40.801,36.486C41.216,37.004 41.688,37.476 42.206,37.891C41.694,38.635 41.315,39.441 41.07,40.311C41.692,40.757 42.357,41.141 43.054,41.456C43.685,40.81 44.194,40.078 44.582,39.263C45.201,39.504 45.845,39.677 46.502,39.777C46.43,40.677 46.505,41.565 46.728,42.441C47.489,42.516 48.257,42.516 49.019,42.441C49.241,41.565 49.317,40.677 49.244,39.777C49.901,39.677 50.545,39.504 51.165,39.263C51.552,40.078 52.061,40.81 52.692,41.456C53.389,41.141 54.054,40.757 54.676,40.311C54.431,39.441 54.053,38.635 53.54,37.891C54.058,37.476 54.53,37.004 54.945,36.486C55.689,36.998 56.496,37.377 57.365,37.622C57.811,37 58.195,36.335 58.511,35.638C57.864,35.007 57.133,34.498 56.317,34.11C56.558,33.491 56.731,32.847 56.831,32.19C57.732,32.262 58.619,32.187 59.495,31.964C59.57,31.203 59.57,30.435 59.495,29.673C58.619,29.451 57.732,29.375 56.831,29.448C56.731,28.791 56.558,28.147 56.317,27.528C57.133,27.14 57.864,26.631 58.511,26C58.195,25.303 57.811,24.638 57.365,24.016C56.496,24.261 55.689,24.64 54.945,25.152C54.53,24.634 54.058,24.162 53.54,23.747C54.053,23.003 54.431,22.196 54.676,21.327C54.054,20.881 53.389,20.497 52.692,20.182C52.061,20.828 51.552,21.559 51.165,22.375C50.545,22.134 49.901,21.961 49.244,21.861C49.317,20.96 49.241,20.073 49.019,19.197ZM47.873,27.133C49.908,27.133 51.559,28.784 51.559,30.819C51.559,32.854 49.908,34.505 47.873,34.505C45.839,34.505 44.187,32.854 44.187,30.819C44.187,28.784 45.839,27.133 47.873,27.133Z" style="fill:rgb(2,129,7);stroke:rgb(0,35,0);stroke-width:0.49px;"/>
    </g>
    <text x="4.204px" y="59.608px" style="font-family:'ArialMT', 'Arial', sans-serif;font-size:29.655px;fill:rgb(119,0,0);">zs</text>
</svg>
